<svg id="Laag_1" data-name="Laag 1" xmlns="http://www.w3.org/2000/svg" viewBox="0 0 275.09 73.05"><defs><style>.cls-1{fill:#be1622;}</style></defs><title>onveilig</title><path class="cls-1" d="M274,269.5c0-16.71,9.33-26.57,22.79-26.57s22.78,9.9,22.78,26.57-9.32,27-22.78,27S274,286.22,274,269.5Zm36.15,0c0-11.59-5.24-18.61-13.36-18.61s-13.37,7-13.37,18.61,5.25,19,13.37,19S310.11,281.1,310.11,269.5Z" transform="translate(-273.96 -239.64)"/><path class="cls-1" d="M329.14,256.74h7.45l.7,5.24h.25c3.48-3.38,7.43-6.19,12.74-6.19,8.31,0,11.94,5.62,11.94,15.42v24.33h-9.1V272.38c0-6.39-1.83-8.79-6-8.79-3.41,0-5.65,1.68-8.84,4.84v27.11h-9.1Z" transform="translate(-273.96 -239.64)"/><path class="cls-1" d="M368.54,256.74h9.23l6.16,20.12c1.07,3.83,2.21,7.81,3.29,11.7h.31c1.08-3.89,2.21-7.87,3.29-11.7L397,256.74h8.78l-13.17,38.8H382.07Z" transform="translate(-273.96 -239.64)"/><path class="cls-1" d="M409.45,276.17c0-12.61,8.75-20.38,17.88-20.38,10.49,0,16,7.58,16,18.42a24,24,0,0,1-.39,4.42H418.33c.76,6.89,5.18,10.81,11.44,10.81a16.54,16.54,0,0,0,9-2.81l3.1,5.65a24.08,24.08,0,0,1-13.3,4.21C417.85,296.49,409.45,289,409.45,276.17Zm26-3.73c0-6-2.66-9.61-8-9.61-4.52,0-8.5,3.39-9.29,9.61Z" transform="translate(-273.96 -239.64)"/><path class="cls-1" d="M451,244.79c0-3.06,2.4-5.15,5.62-5.15s5.63,2.09,5.63,5.15-2.41,5.15-5.63,5.15S451,247.79,451,244.79Zm1,12h9.1v38.8h-9.1Z" transform="translate(-273.96 -239.64)"/><path class="cls-1" d="M472.76,285.55V239.74h9.1V286c0,2.24,1,3,2,3a5.27,5.27,0,0,0,1.42-.16l1.14,6.8a12.86,12.86,0,0,1-4.81.79C475.13,296.49,472.76,292.32,472.76,285.55Z" transform="translate(-273.96 -239.64)"/><path class="cls-1" d="M493.12,244.79c0-3.06,2.4-5.15,5.63-5.15s5.62,2.09,5.62,5.15-2.4,5.15-5.62,5.15S493.12,247.79,493.12,244.79Zm1.05,12h9.1v38.8h-9.1Z" transform="translate(-273.96 -239.64)"/><path class="cls-1" d="M512.21,302.58c0-3.27,2-6.12,5.59-8.27V294a7.37,7.37,0,0,1-3.51-6.48c0-3,2.06-5.65,4.3-7.23V280a12.94,12.94,0,0,1-5.12-10.24c0-8.91,7.21-13.93,15.33-13.93a17.34,17.34,0,0,1,5.75,1h13.87v6.76h-7.08a10.14,10.14,0,0,1,2.21,6.51c0,8.62-6.54,13.24-14.75,13.24a14.83,14.83,0,0,1-5.25-1,4.45,4.45,0,0,0-1.89,3.71c0,2.18,1.58,3.51,6.28,3.51h6.91c9.27,0,14.2,2.88,14.2,9.57,0,7.65-8,13.69-20.69,13.69C519.1,312.7,512.21,309.38,512.21,302.58Zm28.06-2.08c0-3-2.4-3.89-6.84-3.89H528.1a21,21,0,0,1-5.24-.53c-2.09,1.58-3,3.31-3,5.11,0,3.54,3.79,5.6,9.89,5.6S540.27,303.85,540.27,300.5Zm-4.74-30.78c0-4.86-2.94-7.64-6.73-7.64s-6.73,2.75-6.73,7.64,3,7.81,6.73,7.81S535.53,274.65,535.53,269.72Z" transform="translate(-273.96 -239.64)"/></svg>