<svg id="Laag_1" data-name="Laag 1" xmlns="http://www.w3.org/2000/svg" viewBox="0 0 184.11 73.05"><defs><style>.cls-1{fill:#3aaa35;}</style></defs><title>veilig</title><path class="cls-1" d="M305.82,224.75h9.7l7.27,26c1.68,5.87,2.81,10.94,4.55,16.81h.32c1.74-5.87,2.92-10.94,4.55-16.81l7.17-26h9.35l-16,51.66H321.88Z" transform="translate(-305.82 -220.52)"/><path class="cls-1" d="M350.33,257c0-12.6,8.76-20.38,17.89-20.38,10.49,0,16,7.59,16,18.42a23.2,23.2,0,0,1-.4,4.43H359.21c.76,6.89,5.18,10.8,11.44,10.8a16.57,16.57,0,0,0,9-2.81l3.09,5.66a24,24,0,0,1-13.3,4.2C358.74,277.36,350.33,269.84,350.33,257Zm26-3.72c0-6-2.65-9.61-8-9.61-4.52,0-8.5,3.38-9.29,9.61Z" transform="translate(-305.82 -220.52)"/><path class="cls-1" d="M391.9,225.67c0-3.07,2.4-5.15,5.63-5.15s5.62,2.08,5.62,5.15-2.4,5.15-5.62,5.15S391.9,228.67,391.9,225.67Zm1,11.94H402v38.8h-9.1Z" transform="translate(-305.82 -220.52)"/><path class="cls-1" d="M413.64,266.43V220.61h9.1V266.9c0,2.25,1,3,2,3a5.23,5.23,0,0,0,1.42-.16l1.14,6.79a12.76,12.76,0,0,1-4.8.79C416,277.36,413.64,273.19,413.64,266.43Z" transform="translate(-305.82 -220.52)"/><path class="cls-1" d="M434,225.67c0-3.07,2.4-5.15,5.62-5.15s5.63,2.08,5.63,5.15-2.4,5.15-5.63,5.15S434,228.67,434,225.67Zm1,11.94h9.1v38.8h-9.1Z" transform="translate(-305.82 -220.52)"/><path class="cls-1" d="M453.09,283.46c0-3.27,2-6.13,5.6-8.28v-.31a7.37,7.37,0,0,1-3.51-6.48c0-3,2.05-5.66,4.3-7.24v-.31a12.91,12.91,0,0,1-5.12-10.24c0-8.91,7.2-13.94,15.32-13.94a17.34,17.34,0,0,1,5.75,1H489.3v6.76h-7.07a10.24,10.24,0,0,1,2.21,6.51c0,8.63-6.54,13.24-14.76,13.24a15,15,0,0,1-5.24-1,4.44,4.44,0,0,0-1.9,3.71c0,2.18,1.58,3.5,6.29,3.5h6.9c9.28,0,14.21,2.88,14.21,9.58,0,7.65-8,13.68-20.7,13.68C460,293.57,453.09,290.25,453.09,283.46Zm28.06-2.09c0-3-2.4-3.88-6.84-3.88H469a21.08,21.08,0,0,1-5.25-.54c-2.08,1.58-3,3.32-3,5.12,0,3.54,3.79,5.59,9.89,5.59C476.89,287.66,481.15,284.72,481.15,281.37Zm-4.74-30.77c0-4.87-2.94-7.65-6.73-7.65S463,245.7,463,250.6s3,7.8,6.73,7.8S476.41,255.53,476.41,250.6Z" transform="translate(-305.82 -220.52)"/></svg>